RobotoDelta-XTRAmax.ufo
<glyph name="quotedbl" format="1">
  <advance width="938"/>
  <unicode hex="0022"/>
  <outline>
    <contour>
      <point x="120" y="963" type="line"/>
      <point x="100" y="1292" type="line"/>
      <point x="100" y="1456" type="line"/>
      <point x="276" y="1456" type="line"/>
      <point x="276" y="1301" type="line"/>
      <point x="254" y="963" type="line"/>
    </contour>
    <contour>
      <point x="682" y="963" type="line"/>
      <point x="662" y="1299" type="line"/>
      <point x="662" y="1456" type="line"/>
      <point x="838" y="1456" type="line"/>
      <point x="838" y="1301" type="line"/>
      <point x="816" y="963" type="line"/>
    </contour>
  </outline>
</glyph>
<glyph name="dollar" format="1">
  <advance width="1429"/>
  <unicode hex="0024"/>
  <outline>
    <contour>
      <point x="77" y="406" type="qcurve" smooth="yes"/>
      <point x="77" y="418" type="line"/>
      <point x="255" y="418" type="line"/>
      <point x="255" y="411" type="line" smooth="yes"/>
      <point x="255" y="290"/>
      <point x="495" y="153"/>
      <point x="712" y="153" type="qcurve" smooth="yes"/>
      <point x="939" y="153"/>
      <point x="1170" y="287"/>
      <point x="1170" y="382" type="qcurve" smooth="yes"/>
      <point x="1170" y="480"/>
      <point x="960" y="606"/>
      <point x="675" y="665" type="qcurve" smooth="yes"/>
      <point x="392" y="724"/>
      <point x="118" y="902"/>
      <point x="118" y="1066" type="qcurve" smooth="yes"/>
      <point x="118" y="1235"/>
      <point x="450" y="1456"/>
      <point x="710" y="1456" type="qcurve" smooth="yes"/>
      <point x="1001" y="1456"/>
      <point x="1311" y="1223"/>
      <point x="1311" y="1058" type="qcurve" smooth="yes"/>
      <point x="1311" y="1043" type="line"/>
      <point x="1133" y="1043" type="line"/>
      <point x="1133" y="1057" type="line" smooth="yes"/>
      <point x="1133" y="1163"/>
      <point x="922" y="1298"/>
      <point x="699" y="1298" type="qcurve" smooth="yes"/>
      <point x="481" y="1298"/>
      <point x="292" y="1168"/>
      <point x="292" y="1078" type="qcurve" smooth="yes"/>
      <point x="292" y="997"/>
      <point x="510" y="875"/>
      <point x="754" y="827" type="qcurve" smooth="yes"/>
      <point x="1050" y="768"/>
      <point x="1344" y="578"/>
      <point x="1344" y="394" type="qcurve" smooth="yes"/>
      <point x="1344" y="207"/>
      <point x="1001" y="0"/>
      <point x="726" y="0" type="qcurve" smooth="yes"/>
      <point x="443" y="0"/>
      <point x="77" y="198"/>
    </contour>
    <contour>
      <point x="662" y="744" type="line"/>
      <point x="662" y="1353" type="line"/>
      <point x="648" y="1354" type="line"/>
      <point x="648" y="1564" type="line"/>
      <point x="783" y="1564" type="line"/>
      <point x="783" y="744" type="line"/>
    </contour>
    <contour>
      <point x="648" y="-158" type="line"/>
      <point x="648" y="715" type="line"/>
      <point x="770" y="715" type="line"/>
      <point x="770" y="100" type="line"/>
      <point x="783" y="100" type="line"/>
      <point x="783" y="-158" type="line"/>
    </contour>
  </outline>
</glyph>
<glyph name="quotesingle" format="1">
  <advance width="405"/>
  <unicode hex="0027"/>
  <outline>
    <contour>
      <point x="134" y="963" type="line"/>
      <point x="100" y="1292" type="line"/>
      <point x="100" y="1456" type="line"/>
      <point x="305" y="1456" type="line"/>
      <point x="305" y="1301" type="line"/>
      <point x="269" y="963" type="line"/>
    </contour>
  </outline>
</glyph>
<glyph name="hyphen" format="1">
  <advance width="822"/>
  <unicode hex="002D"/>
  <outline>
    <contour>
      <point x="38" y="543" type="line"/>
      <point x="38" y="715" type="line"/>
      <point x="784" y="715" type="line"/>
      <point x="784" y="543" type="line"/>
    </contour>
  </outline>
</glyph>
<glyph name="slash" format="1">
  <advance width="793"/>
  <unicode hex="002F"/>
  <outline>
    <contour>
      <point x="-102" y="-125" type="line"/>
      <point x="713" y="1456" type="line"/>
      <point x="895" y="1456" type="line"/>
      <point x="82" y="-125" type="line"/>
    </contour>
  </outline>
</glyph>
<glyph name="semicolon" format="1">
  <advance width="667"/>
  <unicode hex="003B"/>
  <outline>
    <contour>
      <point x="216" y="949" type="qcurve" smooth="yes"/>
      <point x="216" y="1009"/>
      <point x="298" y="1068"/>
      <point x="354" y="1068" type="qcurve" smooth="yes"/>
      <point x="409" y="1068"/>
      <point x="491" y="1009"/>
      <point x="491" y="949" type="qcurve" smooth="yes"/>
      <point x="491" y="890"/>
      <point x="409" y="831"/>
      <point x="354" y="831" type="qcurve" smooth="yes"/>
      <point x="298" y="831"/>
      <point x="216" y="890"/>
    </contour>
    <contour>
      <point x="119" y="-219" type="line"/>
      <point x="197" y="-145"/>
      <point x="278" y="2"/>
      <point x="278" y="68" type="qcurve" smooth="yes"/>
      <point x="278" y="220" type="line"/>
      <point x="454" y="220" type="line"/>
      <point x="454" y="71" type="line" smooth="yes"/>
      <point x="454" y="-33"/>
      <point x="324" y="-227"/>
      <point x="239" y="-275" type="qcurve"/>
    </contour>
  </outline>
</glyph>
<glyph name="question" format="1">
  <advance width="1179"/>
  <unicode hex="003F"/>
  <outline>
    <contour>
      <point x="622" y="410" type="line"/>
      <point x="438" y="410" type="line"/>
      <point x="438" y="415" type="line" smooth="yes"/>
      <point x="438" y="552"/>
      <point x="520" y="693"/>
      <point x="631" y="774" type="qcurve" smooth="yes"/>
      <point x="757" y="867"/>
      <point x="899" y="1009"/>
      <point x="899" y="1101" type="qcurve" smooth="yes"/>
      <point x="899" y="1197"/>
      <point x="742" y="1314"/>
      <point x="579" y="1314" type="qcurve" smooth="yes"/>
      <point x="418" y="1314"/>
      <point x="243" y="1204"/>
      <point x="243" y="1117" type="qcurve" smooth="yes"/>
      <point x="243" y="1097" type="line"/>
      <point x="60" y="1097" type="line"/>
      <point x="60" y="1117" type="line" smooth="yes"/>
      <point x="60" y="1289"/>
      <point x="350" y="1476"/>
      <point x="579" y="1476" type="qcurve" smooth="yes"/>
      <point x="808" y="1476"/>
      <point x="1083" y="1278"/>
      <point x="1083" y="1096" type="qcurve" smooth="yes"/>
      <point x="1083" y="953"/>
      <point x="893" y="755"/>
      <point x="798" y="692" type="qcurve" smooth="yes"/>
      <point x="680" y="612"/>
      <point x="622" y="472"/>
      <point x="622" y="412" type="qcurve" smooth="yes"/>
    </contour>
    <contour>
      <point x="412" y="94" type="qcurve" smooth="yes"/>
      <point x="412" y="151"/>
      <point x="486" y="211"/>
      <point x="541" y="211" type="qcurve" smooth="yes"/>
      <point x="596" y="211"/>
      <point x="670" y="151"/>
      <point x="670" y="94" type="qcurve" smooth="yes"/>
      <point x="670" y="38"/>
      <point x="596" y="-22"/>
      <point x="541" y="-22" type="qcurve" smooth="yes"/>
      <point x="486" y="-22"/>
      <point x="412" y="38"/>
    </contour>
  </outline>
</glyph>
<glyph name="at" format="1">
  <advance width="2736"/>
  <unicode hex="0040"/>
  <outline>
    <contour>
      <point x="794" y="461" type="qcurve" smooth="yes"/>
      <point x="824" y="717"/>
      <point x="1220" y="1040"/>
      <point x="1403" y="1040" type="qcurve" smooth="yes"/>
      <point x="1525" y="1040"/>
      <point x="1717" y="978"/>
      <point x="1794" y="934" type="qcurve"/>
      <point x="1894" y="934" type="line"/>
      <point x="1731" y="338" type="line"/>
      <point x="1716" y="208"/>
      <point x="1875" y="137"/>
      <point x="1962" y="137" type="qcurve" smooth="yes"/>
      <point x="2147" y="137"/>
      <point x="2422" y="387"/>
      <point x="2422" y="649" type="qcurve" smooth="yes"/>
      <point x="2422" y="899"/>
      <point x="1882" y="1333"/>
      <point x="1395" y="1333" type="qcurve" smooth="yes"/>
      <point x="953" y="1333"/>
      <point x="299" y="835"/>
      <point x="299" y="478" type="qcurve" smooth="yes"/>
      <point x="299" y="119"/>
      <point x="855" y="-298"/>
      <point x="1304" y="-298" type="qcurve" smooth="yes"/>
      <point x="1442" y="-298"/>
      <point x="1738" y="-246"/>
      <point x="1765" y="-234" type="qcurve"/>
      <point x="1765" y="-369" type="line"/>
      <point x="1682" y="-409"/>
      <point x="1403" y="-453"/>
      <point x="1299" y="-453" type="qcurve" smooth="yes"/>
      <point x="815" y="-453"/>
      <point x="116" y="46"/>
      <point x="116" y="478" type="qcurve" smooth="yes"/>
      <point x="116" y="895"/>
      <point x="921" y="1484"/>
      <point x="1401" y="1484" type="qcurve" smooth="yes"/>
      <point x="1891" y="1484"/>
      <point x="2570" y="1008"/>
      <point x="2570" y="649" type="qcurve" smooth="yes"/>
      <point x="2570" y="355"/>
      <point x="2199" y="-1"/>
      <point x="1934" y="-1" type="qcurve" smooth="yes"/>
      <point x="1827" y="-1"/>
      <point x="1609" y="93"/>
      <point x="1538" y="218" type="qcurve"/>
      <point x="1437" y="89"/>
      <point x="1251" y="-1"/>
      <point x="1173" y="-1" type="qcurve" smooth="yes"/>
      <point x="1002" y="-1"/>
      <point x="767" y="246"/>
    </contour>
    <contour>
      <point x="993" y="425" type="qcurve" smooth="yes"/>
      <point x="978" y="304"/>
      <point x="1093" y="155"/>
      <point x="1235" y="155" type="qcurve" smooth="yes"/>
      <point x="1333" y="155"/>
      <point x="1504" y="262"/>
      <point x="1556" y="399" type="qcurve"/>
      <point x="1681" y="858" type="line"/>
      <point x="1631" y="879"/>
      <point x="1510" y="901"/>
      <point x="1425" y="901" type="qcurve" smooth="yes"/>
      <point x="1254" y="901"/>
      <point x="1020" y="648"/>
    </contour>
  </outline>
</glyph>
<glyph name="H" format="1">
  <advance width="1775"/>
  <unicode hex="0048"/>
  <outline>
    <contour>
      <point x="170" y="0" type="line"/>
      <point x="170" y="1456" type="line"/>
      <point x="362" y="1456" type="line"/>
      <point x="362" y="830" type="line"/>
      <point x="1413" y="830" type="line"/>
      <point x="1413" y="1456" type="line"/>
      <point x="1605" y="1456" type="line"/>
      <point x="1605" y="0" type="line"/>
      <point x="1413" y="0" type="line"/>
      <point x="1413" y="673" type="line"/>
      <point x="362" y="673" type="line"/>
      <point x="362" y="0" type="line"/>
    </contour>
  </outline>
</glyph>
<glyph name="M" format="1">
  <advance width="2217"/>
  <unicode hex="004D"/>
  <outline>
    <contour>
      <point x="170" y="0" type="line"/>
      <point x="170" y="1456" type="line"/>
      <point x="443" y="1456" type="line"/>
      <point x="1035" y="340" type="line" smooth="yes"/>
      <point x="1045" y="321"/>
      <point x="1094" y="232"/>
      <point x="1107" y="211" type="qcurve"/>
      <point x="1110" y="211" type="line"/>
      <point x="1124" y="233"/>
      <point x="1174" y="321"/>
      <point x="1184" y="340" type="qcurve" smooth="yes"/>
      <point x="1774" y="1456" type="line"/>
      <point x="2047" y="1456" type="line"/>
      <point x="2047" y="0" type="line"/>
      <point x="1863" y="0" type="line"/>
      <point x="1863" y="919" type="line" smooth="yes"/>
      <point x="1863" y="982"/>
      <point x="1863" y="1245"/>
      <point x="1863" y="1256" type="qcurve"/>
      <point x="1860" y="1256" type="line"/>
      <point x="1847" y="1231"/>
      <point x="1759" y="1064"/>
      <point x="1746" y="1038" type="qcurve" smooth="yes"/>
      <point x="1193" y="0" type="line"/>
      <point x="1023" y="0" type="line"/>
      <point x="465" y="1038" type="line" smooth="yes"/>
      <point x="452" y="1063"/>
      <point x="365" y="1230"/>
      <point x="354" y="1252" type="qcurve"/>
      <point x="349" y="1252" type="line"/>
      <point x="349" y="1243"/>
      <point x="349" y="982"/>
      <point x="349" y="919" type="qcurve" smooth="yes"/>
      <point x="349" y="0" type="line"/>
    </contour>
  </outline>
</glyph>
<glyph name="underscore" format="1">
  <advance width="1271"/>
  <unicode hex="005F"/>
  <outline>
    <contour>
      <point x="0" y="-266" type="line"/>
      <point x="0" y="-100" type="line"/>
      <point x="363" y="-100" type="line"/>
      <point x="363" y="-266" type="line"/>
    </contour>
    <contour>
      <point x="454" y="-266" type="line"/>
      <point x="454" y="-100" type="line"/>
      <point x="817" y="-100" type="line"/>
      <point x="817" y="-266" type="line"/>
    </contour>
    <contour>
      <point x="908" y="-266" type="line"/>
      <point x="908" y="-100" type="line"/>
      <point x="1271" y="-100" type="line"/>
      <point x="1271" y="-266" type="line"/>
    </contour>
  </outline>
</glyph>
<glyph name="r" format="1">
  <advance width="881"/>
  <unicode hex="0072"/>
  <outline>
    <contour>
      <point x="148" y="0" type="line"/>
      <point x="148" y="1052" type="line"/>
      <point x="317" y="1052" type="line"/>
      <point x="329" y="866" type="line"/>
      <point x="331" y="866" type="line"/>
      <point x="414" y="970"/>
      <point x="641" y="1092"/>
      <point x="740" y="1092" type="qcurve" smooth="yes"/>
      <point x="779" y="1092"/>
      <point x="831" y="1081"/>
      <point x="848" y="1072" type="qcurve"/>
      <point x="848" y="901" type="line"/>
      <point x="830" y="906"/>
      <point x="780" y="914"/>
      <point x="718" y="914" type="qcurve" smooth="yes"/>
      <point x="570" y="914"/>
      <point x="380" y="764"/>
      <point x="334" y="691" type="qcurve"/>
      <point x="334" y="0" type="line"/>
    </contour>
  </outline>
</glyph>
<glyph name="s" format="1">
  <advance width="1324"/>
  <unicode hex="0073"/>
  <outline>
    <contour>
      <point x="80" y="312" type="line"/>
      <point x="263" y="312" type="line"/>
      <point x="263" y="307" type="line" smooth="yes"/>
      <point x="263" y="223"/>
      <point x="487" y="111"/>
      <point x="673" y="111" type="qcurve" smooth="yes"/>
      <point x="870" y="111"/>
      <point x="1062" y="211"/>
      <point x="1062" y="279" type="qcurve" smooth="yes"/>
      <point x="1062" y="344"/>
      <point x="918" y="422"/>
      <point x="650" y="460" type="qcurve" smooth="yes"/>
      <point x="410" y="494"/>
      <point x="124" y="640"/>
      <point x="124" y="780" type="qcurve" smooth="yes"/>
      <point x="124" y="915"/>
      <point x="420" y="1092"/>
      <point x="665" y="1092" type="qcurve" smooth="yes"/>
      <point x="909" y="1092"/>
      <point x="1213" y="906"/>
      <point x="1213" y="760" type="qcurve" smooth="yes"/>
      <point x="1213" y="757" type="line"/>
      <point x="1031" y="757" type="line"/>
      <point x="1029" y="772" type="line" smooth="yes"/>
      <point x="1020" y="842"/>
      <point x="857" y="940"/>
      <point x="665" y="940" type="qcurve" smooth="yes"/>
      <point x="454" y="940"/>
      <point x="307" y="856"/>
      <point x="307" y="797" type="qcurve" smooth="yes"/>
      <point x="307" y="740"/>
      <point x="483" y="661"/>
      <point x="733" y="624" type="qcurve" smooth="yes"/>
      <point x="978" y="587"/>
      <point x="1244" y="440"/>
      <point x="1244" y="289" type="qcurve" smooth="yes"/>
      <point x="1244" y="140"/>
      <point x="919" y="-40"/>
      <point x="670" y="-40" type="qcurve" smooth="yes"/>
      <point x="397" y="-40"/>
      <point x="80" y="149"/>
      <point x="80" y="309" type="qcurve" smooth="yes"/>
    </contour>
  </outline>
</glyph>
<glyph name="x" format="1">
  <advance width="1349"/>
  <unicode hex="0078"/>
  <outline>
    <contour>
      <point x="24" y="0" type="line"/>
      <point x="611" y="598" type="line"/>
      <point x="620" y="598" type="line"/>
      <point x="1058" y="1052" type="line"/>
      <point x="1294" y="1052" type="line"/>
      <point x="725" y="471" type="line"/>
      <point x="715" y="471" type="line"/>
      <point x="263" y="0" type="line"/>
    </contour>
    <contour>
      <point x="53" y="1052" type="line"/>
      <point x="294" y="1052" type="line"/>
      <point x="716" y="611" type="line"/>
      <point x="726" y="611" type="line"/>
      <point x="1325" y="0" type="line"/>
      <point x="1083" y="0" type="line"/>
      <point x="633" y="470" type="line"/>
      <point x="624" y="470" type="line"/>
    </contour>
  </outline>
</glyph>
<glyph name="section" format="1">
  <advance width="1529"/>
  <unicode hex="00A7"/>
  <outline>
    <contour>
      <point x="1395" y="-97" type="qcurve" smooth="yes"/>
      <point x="1395" y="-273"/>
      <point x="1042" y="-471"/>
      <point x="755" y="-471" type="qcurve" smooth="yes"/>
      <point x="484" y="-471"/>
      <point x="126" y="-262"/>
      <point x="126" y="-64" type="qcurve" smooth="yes"/>
      <point x="126" y="-49" type="line"/>
      <point x="276" y="-49" type="line"/>
      <point x="276" y="-68" type="line" smooth="yes"/>
      <point x="276" y="-175"/>
      <point x="532" y="-311"/>
      <point x="761" y="-311" type="qcurve" smooth="yes"/>
      <point x="995" y="-311"/>
      <point x="1231" y="-194"/>
      <point x="1231" y="-108" type="qcurve" smooth="yes"/>
      <point x="1231" y="-27"/>
      <point x="984" y="89"/>
      <point x="660" y="178" type="qcurve" smooth="yes"/>
      <point x="409" y="247"/>
      <point x="138" y="408"/>
      <point x="138" y="565" type="qcurve" smooth="yes"/>
      <point x="138" y="682"/>
      <point x="283" y="822"/>
      <point x="412" y="856" type="qcurve"/>
      <point x="320" y="901"/>
      <point x="228" y="1023"/>
      <point x="228" y="1125" type="qcurve" smooth="yes"/>
      <point x="228" y="1273"/>
      <point x="573" y="1486"/>
      <point x="802" y="1486" type="qcurve" smooth="yes"/>
      <point x="1056" y="1486"/>
      <point x="1372" y="1286"/>
      <point x="1372" y="1093" type="qcurve" smooth="yes"/>
      <point x="1372" y="1079" type="line"/>
      <point x="1221" y="1079" type="line"/>
      <point x="1221" y="1097" type="line" smooth="yes"/>
      <point x="1221" y="1200"/>
      <point x="1015" y="1322"/>
      <point x="796" y="1322" type="qcurve" smooth="yes"/>
      <point x="573" y="1322"/>
      <point x="392" y="1217"/>
      <point x="392" y="1136" type="qcurve" smooth="yes"/>
      <point x="392" y="1059"/>
      <point x="601" y="949"/>
      <point x="905" y="860" type="qcurve" smooth="yes"/>
      <point x="1136" y="792"/>
      <point x="1395" y="648"/>
      <point x="1395" y="496" type="qcurve" smooth="yes"/>
      <point x="1395" y="368"/>
      <point x="1219" y="244"/>
      <point x="1069" y="225" type="qcurve"/>
      <point x="1257" y="154"/>
      <point x="1395" y="18"/>
    </contour>
    <contour>
      <point x="733" y="317" type="qcurve" smooth="yes"/>
      <point x="921" y="276"/>
      <point x="1246" y="399"/>
      <point x="1246" y="479" type="qcurve" smooth="yes"/>
      <point x="1246" y="570"/>
      <point x="985" y="665"/>
      <point x="708" y="760" type="qcurve" smooth="yes"/>
      <point x="555" y="813"/>
      <point x="276" y="709"/>
      <point x="276" y="583" type="qcurve" smooth="yes"/>
      <point x="276" y="490"/>
      <point x="512" y="366"/>
    </contour>
  </outline>
</glyph>
<glyph name="dieresis" format="1">
  <advance width="1242"/>
  <unicode hex="00A8"/>
  <outline>
    <contour>
      <point x="187" y="1255" type="qcurve" smooth="yes"/>
      <point x="187" y="1312"/>
      <point x="257" y="1368"/>
      <point x="303" y="1368" type="qcurve" smooth="yes"/>
      <point x="349" y="1368"/>
      <point x="419" y="1312"/>
      <point x="419" y="1255" type="qcurve" smooth="yes"/>
      <point x="419" y="1199"/>
      <point x="349" y="1146"/>
      <point x="303" y="1146" type="qcurve" smooth="yes"/>
      <point x="257" y="1146"/>
      <point x="187" y="1199"/>
    </contour>
    <contour>
      <point x="823" y="1253" type="qcurve" smooth="yes"/>
      <point x="823" y="1310"/>
      <point x="892" y="1366"/>
      <point x="938" y="1366" type="qcurve" smooth="yes"/>
      <point x="984" y="1366"/>
      <point x="1055" y="1310"/>
      <point x="1055" y="1253" type="qcurve" smooth="yes"/>
      <point x="1055" y="1197"/>
      <point x="984" y="1144"/>
      <point x="938" y="1144" type="qcurve" smooth="yes"/>
      <point x="892" y="1144"/>
      <point x="823" y="1197"/>
    </contour>
    <contour>
      <point x="621" y="1052" type="move" name="_top"/>
    </contour>
  </outline>
</glyph>
<glyph name="copyright" format="1">
  <advance width="2205"/>
  <unicode hex="00A9"/>
  <outline>
    <contour>
      <point x="233" y="699" type="qcurve" smooth="yes"/>
      <point x="233" y="456"/>
      <point x="722" y="64"/>
      <point x="1103" y="64" type="qcurve" smooth="yes"/>
      <point x="1501" y="64"/>
      <point x="1970" y="431"/>
      <point x="1970" y="699" type="qcurve" smooth="yes"/>
      <point x="1970" y="941"/>
      <point x="1483" y="1331"/>
      <point x="1103" y="1331" type="qcurve" smooth="yes"/>
      <point x="706" y="1331"/>
      <point x="233" y="952"/>
    </contour>
    <contour>
      <point x="94" y="699" type="qcurve" smooth="yes"/>
      <point x="94" y="1040"/>
      <point x="716" y="1479"/>
      <point x="1103" y="1479" type="qcurve" smooth="yes"/>
      <point x="1491" y="1479"/>
      <point x="2111" y="1040"/>
      <point x="2111" y="699" type="qcurve" smooth="yes"/>
      <point x="2111" y="349"/>
      <point x="1504" y="-82"/>
      <point x="1103" y="-82" type="qcurve" smooth="yes"/>
      <point x="716" y="-82"/>
      <point x="94" y="356"/>
    </contour>
    <contour>
      <point x="577" y="669" type="qcurve" smooth="yes"/>
      <point x="577" y="757" type="line" smooth="yes"/>
      <point x="577" y="954"/>
      <point x="888" y="1174"/>
      <point x="1098" y="1174" type="qcurve" smooth="yes"/>
      <point x="1314" y="1174"/>
      <point x="1574" y="1009"/>
      <point x="1577" y="887" type="qcurve" smooth="yes"/>
      <point x="1579" y="832" type="line"/>
      <point x="1434" y="832" type="line"/>
      <point x="1434" y="872" type="line" smooth="yes"/>
      <point x="1434" y="936"/>
      <point x="1280" y="1027"/>
      <point x="1106" y="1027" type="qcurve" smooth="yes"/>
      <point x="930" y="1027"/>
      <point x="749" y="884"/>
      <point x="749" y="758" type="qcurve" smooth="yes"/>
      <point x="749" y="669" type="line" smooth="yes"/>
      <point x="749" y="560"/>
      <point x="927" y="402"/>
      <point x="1103" y="402" type="qcurve" smooth="yes"/>
      <point x="1258" y="402"/>
      <point x="1419" y="467"/>
      <point x="1429" y="560" type="qcurve" smooth="yes"/>
      <point x="1432" y="580" type="line"/>
      <point x="1579" y="580" type="line"/>
      <point x="1577" y="532" type="line" smooth="yes"/>
      <point x="1572" y="417"/>
      <point x="1307" y="252"/>
      <point x="1102" y="252" type="qcurve" smooth="yes"/>
      <point x="895" y="252"/>
      <point x="577" y="475"/>
    </contour>
  </outline>
</glyph>
<glyph name="guillemetleft" format="1">
  <advance width="1499"/>
  <unicode hex="00AB"/>
  <outline>
    <contour>
      <point x="574" y="203" type="line"/>
      <point x="78" y="582" type="line"/>
      <point x="78" y="621" type="line"/>
      <point x="574" y="999" type="line"/>
      <point x="761" y="999" type="line"/>
      <point x="321" y="601" type="line"/>
      <point x="761" y="203" type="line"/>
    </contour>
    <contour>
      <point x="1252" y="203" type="line"/>
      <point x="756" y="582" type="line"/>
      <point x="756" y="621" type="line"/>
      <point x="1252" y="999" type="line"/>
      <point x="1439" y="999" type="line"/>
      <point x="1000" y="601" type="line"/>
      <point x="1439" y="203" type="line"/>
    </contour>
  </outline>
</glyph>
<glyph name="guillemetright" format="1">
  <advance width="1500"/>
  <unicode hex="00BB"/>
  <outline>
    <contour>
      <point x="926" y="999" type="line"/>
      <point x="1422" y="620" type="line"/>
      <point x="1422" y="581" type="line"/>
      <point x="926" y="203" type="line"/>
      <point x="739" y="203" type="line"/>
      <point x="1178" y="601" type="line"/>
      <point x="739" y="999" type="line"/>
    </contour>
    <contour>
      <point x="247" y="999" type="line"/>
      <point x="743" y="620" type="line"/>
      <point x="743" y="581" type="line"/>
      <point x="247" y="203" type="line"/>
      <point x="60" y="203" type="line"/>
      <point x="500" y="601" type="line"/>
      <point x="60" y="999" type="line"/>
    </contour>
  </outline>
</glyph>
<glyph name="AE" format="1">
  <advance width="2344"/>
  <unicode hex="00C6"/>
  <outline>
    <contour>
      <point x="390" y="387" type="line"/>
      <point x="471" y="539" type="line"/>
      <point x="1199" y="539" type="line"/>
      <point x="1199" y="387" type="line"/>
    </contour>
    <contour>
      <point x="1202" y="0" type="line"/>
      <point x="1202" y="1407" type="line"/>
      <point x="134" y="0" type="line"/>
      <point x="-80" y="0" type="line"/>
      <point x="1026" y="1456" type="line"/>
      <point x="2262" y="1456" type="line"/>
      <point x="2262" y="1298" type="line"/>
      <point x="1388" y="1298" type="line"/>
      <point x="1388" y="830" type="line"/>
      <point x="2139" y="830" type="line"/>
      <point x="2139" y="673" type="line"/>
      <point x="1388" y="673" type="line"/>
      <point x="1388" y="157" type="line"/>
      <point x="2276" y="157" type="line"/>
      <point x="2276" y="0" type="line"/>
    </contour>
  </outline>
</glyph>
<glyph name="multiply" format="1">
  <advance width="1531"/>
  <unicode hex="00D7"/>
  <outline>
    <contour>
      <point x="137" y="325" type="line"/>
      <point x="1254" y="1097" type="line"/>
      <point x="1388" y="1002" type="line"/>
      <point x="272" y="231" type="line"/>
    </contour>
    <contour>
      <point x="140" y="1003" type="line"/>
      <point x="278" y="1100" type="line"/>
      <point x="1394" y="328" type="line"/>
      <point x="1257" y="232" type="line"/>
    </contour>
  </outline>
</glyph>
<glyph name="ring" format="1">
  <advance width="1161"/>
  <unicode hex="02DA"/>
  <outline>
    <contour>
      <point x="272" y="1359" type="qcurve" smooth="yes"/>
      <point x="272" y="1463"/>
      <point x="463" y="1590"/>
      <point x="580" y="1590" type="qcurve" smooth="yes"/>
      <point x="697" y="1590"/>
      <point x="889" y="1463"/>
      <point x="889" y="1359" type="qcurve" smooth="yes"/>
      <point x="889" y="1252"/>
      <point x="697" y="1132"/>
      <point x="580" y="1132" type="qcurve" smooth="yes"/>
      <point x="463" y="1132"/>
      <point x="272" y="1252"/>
    </contour>
    <contour>
      <point x="364" y="1359" type="qcurve" smooth="yes"/>
      <point x="364" y="1325"/>
      <point x="472" y="1244"/>
      <point x="580" y="1244" type="qcurve" smooth="yes"/>
      <point x="688" y="1244"/>
      <point x="797" y="1322"/>
      <point x="797" y="1359" type="qcurve" smooth="yes"/>
      <point x="797" y="1395"/>
      <point x="688" y="1477"/>
      <point x="580" y="1477" type="qcurve" smooth="yes"/>
      <point x="472" y="1477"/>
      <point x="364" y="1395"/>
    </contour>
    <contour>
      <point x="580" y="1052" type="move" name="_top"/>
    </contour>
  </outline>
</glyph>
<glyph name="quotesinglbase" format="1">
  <advance width="487"/>
  <unicode hex="201A"/>
  <outline>
    <contour>
      <point x="95" y="-191" type="line"/>
      <point x="171" y="-117"/>
      <point x="266" y="29"/>
      <point x="266" y="96" type="qcurve" smooth="yes"/>
      <point x="266" y="220" type="line"/>
      <point x="443" y="220" type="line"/>
      <point x="443" y="99" type="line" smooth="yes"/>
      <point x="443" y="-5"/>
      <point x="315" y="-200"/>
      <point x="227" y="-248" type="qcurve"/>
    </contour>
  </outline>
</glyph>
<glyph name="eight.pnum" format="1">
  <advance width="1375"/>
  <outline>
    <contour>
      <point x="90" y="412" type="qcurve" smooth="yes"/>
      <point x="90" y="554"/>
      <point x="285" y="760"/>
      <point x="459" y="795" type="qcurve"/>
      <point x="459" y="798" type="line"/>
      <point x="331" y="845"/>
      <point x="191" y="996"/>
      <point x="191" y="1104" type="qcurve" smooth="yes"/>
      <point x="191" y="1287"/>
      <point x="486" y="1477"/>
      <point x="686" y="1477" type="qcurve" smooth="yes"/>
      <point x="887" y="1477"/>
      <point x="1184" y="1287"/>
      <point x="1184" y="1104" type="qcurve" smooth="yes"/>
      <point x="1184" y="996"/>
      <point x="1042" y="844"/>
      <point x="915" y="797" type="qcurve"/>
      <point x="915" y="793" type="line"/>
      <point x="1092" y="758"/>
      <point x="1285" y="553"/>
      <point x="1285" y="412" type="qcurve" smooth="yes"/>
      <point x="1285" y="198"/>
      <point x="934" y="-30"/>
      <point x="687" y="-30" type="qcurve" smooth="yes"/>
      <point x="439" y="-30"/>
      <point x="90" y="198"/>
    </contour>
    <contour>
      <point x="361" y="1096" type="qcurve" smooth="yes"/>
      <point x="361" y="1002"/>
      <point x="532" y="869"/>
      <point x="687" y="869" type="qcurve" smooth="yes"/>
      <point x="842" y="869"/>
      <point x="1015" y="1002"/>
      <point x="1015" y="1096" type="qcurve" smooth="yes"/>
      <point x="1015" y="1186"/>
      <point x="841" y="1323"/>
      <point x="686" y="1323" type="qcurve" smooth="yes"/>
      <point x="533" y="1323"/>
      <point x="361" y="1192"/>
    </contour>
    <contour>
      <point x="269" y="424" type="qcurve" smooth="yes"/>
      <point x="269" y="293"/>
      <point x="493" y="124"/>
      <point x="687" y="124" type="qcurve" smooth="yes"/>
      <point x="882" y="124"/>
      <point x="1106" y="293"/>
      <point x="1106" y="424" type="qcurve" smooth="yes"/>
      <point x="1106" y="550"/>
      <point x="883" y="714"/>
      <point x="685" y="714" type="qcurve" smooth="yes"/>
      <point x="482" y="714"/>
      <point x="269" y="550"/>
    </contour>
  </outline>
</glyph>
